<svg width="144" height="142" viewBox="0 0 144 142" fill="none" xmlns="http://www.w3.org/2000/svg">
<rect width="144" height="142" rx="70" fill="white"/>
<rect x="3.5" y="3.5" width="136" height="134" rx="67" fill="white" stroke="black" stroke-width="3"/>
<path d="M51.5781 37.0938C53.5781 37.125 58.7969 37.2031 67.2344 37.3281C75.6719 37.4219 81.9531 37.4688 86.0781 37.4688C89.2031 37.4688 92.3281 37.3438 95.4531 37.0938C96.4844 37.4375 97 38.1406 97 39.2031C81.625 60.9219 66.8438 82.2344 52.6562 103.141H68.125C72.4062 103.141 76.1875 102.828 79.4688 102.203C82.7812 101.547 85.6094 100.656 87.9531 99.5312C90.2969 98.375 92.3594 96.8438 94.1406 94.9375C95.9531 93 97.4531 90.9219 98.6406 88.7031C99.8594 86.4844 101.016 83.8281 102.109 80.7344C103.016 80.8594 103.609 81.1875 103.891 81.7188C102.422 85.5312 101.438 89.375 100.938 93.25C100.438 97.0938 100.188 101.344 100.188 106H50.3594C47.0781 106 43.75 106.094 40.375 106.281C39.9062 105.812 39.6719 105.203 39.6719 104.453C54.3281 83.9531 69.1875 62.5156 84.25 40.1406C80.4375 40.1719 77.0938 40.2969 74.2188 40.5156C71.3438 40.7344 68.6562 41.1719 66.1562 41.8281C63.6875 42.4844 61.5938 43.1562 59.875 43.8438C58.1562 44.5312 56.25 45.6094 54.1562 47.0781C52.0625 48.5156 50.2812 49.8594 48.8125 51.1094C47.375 52.3281 45.3594 54.1094 42.7656 56.4531C41.8906 56.4531 41.25 56.1094 40.8438 55.4219C45.75 50.2344 49.3281 44.125 51.5781 37.0938Z" fill="black"/>
</svg>
